<?xml version="1.0" encoding="UTF-8"?>
<svg id="Layer_1" data-name="Layer 1" xmlns="http://www.w3.org/2000/svg" viewBox="0 0 1920 1080">
  <defs>
    <style>
      .cls-1 {
        fill: #303030;
      }

      .cls-2 {
        fill: #5e5e5e;
      }
    </style>
  </defs>
  <path class="cls-2" d="m1534.1,9.26s-.05.05-.05.07c.05-.12.07-.14.05-.07Z"/>
  <path class="cls-2" d="m1615.08.95c-.76-.17-.59-.14,0,0h0Z"/>
  <g>
    <path class="cls-2" d="m1412.12,136.32c10.63,39.63,48.46,67.84,89.84,61.93.97-.14,1.44-.92,1.51-1.77,32.68.19,63.42-21.08,74.91-51.96,12.31-33.1.78-72.99-26.25-95.39-27.6-22.9-68.53-27.1-100.5-11.2-35.85,17.79-49.5,61.13-39.51,98.39Z"/>
    <path class="cls-1" d="m1341.02,136.32c10.63,39.63,48.46,67.84,89.84,61.93.97-.14,1.44-.92,1.51-1.77,32.68.19,63.42-21.08,74.91-51.96,12.31-33.1.78-72.99-26.25-95.39-27.6-22.9-68.53-27.1-100.5-11.2-35.85,17.79-49.5,61.13-39.51,98.39Z"/>
  </g>
  <g>
    <path class="cls-2" d="m1798.36,416.45c.28,24.03.45,48.06.57,72.12.24,48.84.05,97.68-.54,146.53-.05,2.62,3.28,3.12,4.56,1.49l.97.07c0,1.16,1.75,1.84,2.62.66,35.14-48.35,67.89-98.56,101.54-147.94,33.67-49.41,67.23-98.89,100.83-148.37.87-1.3.17-2.53-.92-3.05,0-1.11-.71-2.2-2.13-2.2-68.45.26-137.15.5-205.55,2.88-1.44.05-1.99,1.42-1.65,2.46-.28.24-.5.57-.54.95-2.84,24.22-.02,50.02.26,74.41Z"/>
    <path class="cls-1" d="m1832.53,466.39c.28,24.03.45,48.06.57,72.12.24,48.84.05,97.68-.54,146.53-.05,2.62,3.28,3.12,4.56,1.49l.97.07c0,1.16,1.75,1.84,2.62.66,35.14-48.35,67.89-98.56,101.54-147.94,33.67-49.41,67.23-98.89,100.83-148.37.87-1.3.17-2.53-.92-3.05,0-1.11-.71-2.2-2.13-2.2-68.45.26-137.15.5-205.55,2.88-1.44.05-1.99,1.42-1.65,2.46-.28.24-.5.57-.54.95-2.84,24.22-.02,50.02.26,74.41Z"/>
  </g>
  <path class="cls-2" d="m1077.95,980.29c-1.63.05-2.39,1.37-2.27,2.6-10.04,13.11-19.14,27.76-25.76,42.96-12.74-13.42-24.57-27.1-34.81-42.6-1.02-1.51-2.84-1.37-3.9-.47-10-1.39-20.94-2.86-30.95-2.15-.83.05-1.47.59-1.82,1.23-.61-.85-2.15-.71-2.58.47-.9,2.39.71,4.61,2.84,5.65.24.12.5.21.76.31-.28.8-.21,1.75.5,2.58,24.39,28.1,45.42,58.39,68.19,87.71,1.06,1.39,3.07.12,3.07-1.35l.19.02c-.21,1.68,2.13,2.74,3.28,1.11,20.94-29.47,39.06-62.17,55.79-94.19,1.18-2.29-1.37-4.28-3.19-3.4-9.69-.71-19.66-.78-29.35-.47Z"/>
  <path class="cls-2" d="m1736.11,812.88c7.77-4.99,15.74-10.35,22.8-16.35,2.08.38,4.16-2.39,2.29-4.32-13.97-14.37-28.43-28.21-43.55-41.33-13.07-11.32-27.17-21.29-38.3-34.62.19-.05.38-.14.59-.26,27.58-17.44,53.17-38.68,77.2-60.66.97-.9.99-2.72,0-3.59-27.69-24.41-53.88-50.43-81.38-74.98.14-.05.28-.14.45-.24,27.72-18.86,56.45-36.03,86.2-51.51,1.37-.71,1.7-2.91.5-3.95-32.11-27.93-64.3-56.21-98.37-81.78-.54-.43-1.16-.38-1.68-.12-.33-.59-.99-.94-1.72-.45-7.61,5.39-14.25,12.52-20.39,19.49-1.65,1.89.76,4.54,2.55,3.33.07.26.17.52.38.78,18.41,21.15,40.29,39.91,60.73,59.14-15.45,9.71-29.99,20.89-44.42,32.02-7.16,5.51-14.34,11.03-21.34,16.78-2.5,2.06-6.45,4.32-6.45,8.08,0,4.77,6.52,9.03,9.29,11.74,6.99,6.88,13.99,13.75,20.98,20.65,13.94,13.7,27.88,27.43,41.82,41.16-.12.07-.24.09-.33.19-23.16,19.47-45.32,40.15-67.86,60.33-.85.78-.87,2.1-.4,3.05,9.4,18.36,26.63,31.47,41.49,45.25,18.05,16.75,36.11,33.51,54.16,50.26.43.4.9.61,1.37.69.47,1.3,1.87,2.17,3.4,1.21Z"/>
  <g>
    <path class="cls-1" d="m1850.76,229.25c.09.66.21,1.35.31,2.01.14.95.97,1.3,1.77,1.25.38.64,1.04,1.13,2.03,1.11,55.77-1.68,111.29-4.37,167.06-1.04,2.67.14,2.88-3.45.8-4.39l.17-.4c1.02.35,2.34-.17,2.41-1.63,2.62-56.9-.28-114.79-1.49-171.72-.02-.99-.52-1.63-1.16-2.01.21-1.32-.5-2.79-2.22-2.81-.52,0-1.04-.02-1.56-.02-55.48-.76-111.55-1.54-166.99.52-.78.02-1.35.33-1.72.78-1.42-.97-3.97-.33-4.09,1.96-2.98,58.1-4.18,118.69,4.68,176.39Zm137.12-119.59c.12,9.97.28,19.94.43,29.89.31,19.71.21,39.46,1.02,59.14-36.74-1.16-73.91-1.11-110.66-.19-.73.02-1.25.31-1.65.71-.78-37.67.26-75.43-.92-113.07,37.33.73,75.28.09,112.57-1.65-1.91,8.13-.9,16.85-.78,25.17Z"/>
    <g>
      <path class="cls-2" d="m1971.02,61.98c-37.62-.8-75.85-.43-113.42,1.3-1.73.07-2.43,1.54-2.25,2.84-.64.28-1.13.85-1.21,1.75-2.32,38.19-.95,76.82-.09,115.03.07,2.74,3.66,3.17,4.75,1.25.38.64.99,1.11,1.96,1.13,37.12.97,74.72.99,111.84-.19,1.13-.05,1.82-.76,2.03-1.58.9-.26,1.63-.99,1.63-2.22.24-19.92-.47-39.89-.78-59.81-.14-9.19-.26-18.41-.43-27.6-.14-9.19.8-19.07-1.7-27.95-.09-.31-.28-.54-.5-.69.66-1.3.07-3.21-1.84-3.26Zm-112.83,6.1c31.05.59,62.48.21,93.62-.92-.19.21-.31.47-.28.8,1.09,30.95,1.84,61.34-1.18,92.25-30.53.8-60.94,1.89-91.49,1.3-.21-31.14.31-62.33-.66-93.43Z"/>
      <path class="cls-2" d="m1806.65,191.71c.26.19.54.38.8.57.26.31.54.54.92.69,8.2,5.93,16.59,11.32,24.29,18.01.07.05.12.07.19.09.09.71.19,1.42.31,2.13.14.92.97,1.3,1.77,1.23.38.66,1.02,1.16,2.03,1.11,55.77-1.65,111.29-4.35,167.06-1.04,2.67.17,2.88-3.47.78-4.39-.24-.09-.5-.17-.78-.19-55.34-5.29-111.63-1.56-167.06.59-.17,0-.28.07-.43.09-1.21-28.95-3.95-57.77-4.63-86.77-.69-29.09-.21-58.15,1.23-87.22.26.09.52.19.83.19,55.43,1.72,111.48.59,166.94-.5v.05c.24,56.97-1.21,114.91,2.88,171.72.07.87.57,1.42,1.18,1.63,1.04.38,2.36-.17,2.41-1.63,2.65-56.88-.26-114.77-1.49-171.72,0-.97-.5-1.61-1.16-2.01.05-.14.05-.31.05-.47.09-.28.07-.61-.17-.95-.19-.5-.54-.9-1.06-1.16-6.03-6.43-12.41-12.52-18.76-18.6-.54-.5-1.13-.57-1.68-.43-.12-.47-.47-.85-1.13-.83-57.51,1.44-114.63,3.38-172.16.87-1.63-.07-2.76,1.96-2.03,3.31-.52.19-.92.64-.87,1.39,2.43,57.04,3.59,113.75.19,170.77-1.32.4-1.91,2.36-.45,3.45Z"/>
    </g>
  </g>
  <g>
    <path class="cls-1" d="m1508.62,1043.13c.07,2.79,4.11,2.98,4.61.61l.17.02c-.52,1.51.24,3.5,2.29,3.5,60.47,0,121.2,1.47,181.66-.35.07.02.12.07.19.09,1.21.26,2.2.17,3.05-.19.85-.02,1.7-.02,2.55-.07,2.41-.07,2.6-3.33.59-3.95.17-.59.31-1.21.38-1.82,1.11-8.84-.02-18.9-.69-27.76-.09-1.37-1.23-1.94-2.24-1.8-.19-.21-.43-.4-.8-.47-.09-.02-.17-.02-.26-.05-29.11-5.46-61.27-3.52-90.76-3.45-31.66.09-63.73.38-95.23,3.5-.59.07-1.04.31-1.39.64-.71.05-1.39.4-1.56,1.21-2.2,9.97-2.79,20.16-2.55,30.34Z"/>
    <path class="cls-2" d="m1461.86,1008.6c.02.45.21.78.43,1.06-.09.45,0,.97.45,1.42,5.41,5.65,11.34,11.2,17.58,15.9,1.06.8,2.08-.83,1.32-1.7-.61-.76-1.28-1.47-1.91-2.2,1.25.73,3.19.33,3.52-1.28.05-.19.05-.38.05-.59-.38-9.19.21-18.29,1.09-27.43,30.91-1.02,61.7-3.05,92.65-3.19,14.72-.07,29.44.09,44.16.43,15.95.38,32.44,2.25,48.37,1.13-.21,5.17-.92,28.33-.73,28.36-.43-.07-.78,0-1.13.09-60.59-1.82-121.41-.35-181.99-.35-1.23,0-2.01.71-2.32,1.61-.5,1.49.26,3.47,2.32,3.47,60.47,0,121.2,1.49,181.66-.33.07.02.12.07.19.09,1.18.26,2.17.14,3.02-.19.87-.02,1.72-.05,2.58-.07,2.41-.07,2.6-3.33.57-3.95.19-.59.33-1.21.4-1.84,1.11-8.84-.02-18.88-.69-27.74-.12-1.37-1.25-1.96-2.24-1.8-.17-.19-.4-.33-.69-.43-5.27-6.22-10.92-12.08-16.68-17.84-1.21-1.18-2.81-.43-3.33.76-30.27-2.69-61.2-1.54-91.54-1.35-31.24.19-62.48.64-93.71,1.75-2.01.07-2.67,2.17-1.98,3.54-1.87,10.82-2.1,21.72-1.39,32.66Z"/>
  </g>
  <g>
    <path class="cls-1" d="m1260.22,481.04c-.47.69-.59,1.58,0,2.53,23.72,38.78,47.45,77.55,71.22,116.28,11.48,18.69,22.97,37.38,34.45,56.1,11.34,18.45,21.64,39.18,35.59,55.79.4.5.87.52,1.28.33.95.66,2.34.69,3.1-.61,22.66-39.72,45.2-79.44,68.83-118.6,23.63-39.11,49.17-77.06,72.66-116.23,1.02-1.68-1.46-3.02-2.55-1.49-.31.43-.59.83-.9,1.25l-.14-.09c.61-1.11.12-2.84-1.56-2.86-93.38-1.51-187.03,1.82-280.41,3.07-2.6.02-3.1,3.24-1.56,4.54Zm138.66,167.65c-11.44-23.3-25.43-45.56-38.42-68.01-13.14-22.68-25.24-46.62-39.91-68.36,28.71.33,57.51-.78,86.2-2.2,27.67-1.37,55.67-2.55,83.08-6.88-16.47,23.3-30.74,48.32-45.79,72.54-15.08,24.29-30.34,48.46-45.16,72.9Z"/>
    <g>
      <path class="cls-2" d="m1334.08,522.6c11.67,24.08,26.82,46.93,40.26,70.06,13.49,23.2,26.23,47.24,41.47,69.33.73,1.06,1.98.76,2.43-.09.87.24,1.87,0,2.48-.97,15.36-24.34,30.32-48.91,45.42-73.42,15.08-24.41,31.21-48.49,44.8-73.77.57-1.11-.19-2.03-1.09-2.17.19-.92-.35-2.08-1.49-2.06-28.59.73-57.16,3.76-85.73,5.13-28.64,1.37-57.28,1.61-85.94,2.2-1.91.02-2.65,1.82-2.24,3.21-.59.61-.87,1.54-.38,2.55Zm90.88-3.02c16.16-.8,32.47-1.56,48.68-2.91-25.52,36.01-49.13,73.49-73.3,110.4-7.14-12.38-14.56-24.62-21.67-36.93-13.14-22.68-25.24-46.64-39.93-68.36,28.73.33,57.54-.78,86.22-2.2Z"/>
      <path class="cls-2" d="m1236.7,476.09c22.24,38.45,45.34,76.37,69.47,113.66,20.25,31.26,40.45,63.33,63.19,93.03,2.55,4.49,5.67,8.86,8.72,13.02-.92.85-1.13,2.43.26,3.24,14.08,8.06,28.21,16.07,42.56,23.61,1.06.57,2.01-.09,2.32-.95.33-.17.61-.43.85-.83,22.66-39.7,45.2-79.42,68.83-118.57,23.63-39.11,49.17-77.06,72.66-116.23.95-1.58-1.16-2.84-2.34-1.72-2.62-4.44-7.75-7.99-11.65-11.2-4.28-3.52-8.74-7.18-13.59-9.88-.26-.31-.66-.5-1.21-.52h-1.82c-48.18-.43-96.5,1.87-144.68,3.07-48.82,1.25-97.71,1.87-146.5,3.88-2.5.12-2.98,3.19-1.44,4.37-.24.28-.4.59-.52.92-.26-.47-.54-.92-.83-1.39-1.58-2.76-5.88-.28-4.28,2.5Zm323.7,10.54c.31-.02.57-.09.8-.19.12.05.21.12.33.17-26.04,36.41-49.2,75.26-72.45,113.47-23.56,38.73-46.69,77.81-68.31,117.65-8.48-19.12-21.64-37.03-32.49-54.8-11.84-19.4-23.68-38.8-35.52-58.2-23.18-37.93-46.41-75.83-69.64-113.75,92.34-1.18,185-.38,277.27-4.35Z"/>
    </g>
  </g>
  <g>
    <path class="cls-2" d="m1026.55,542.66c-20.23,14.96-24.13,43.41-16.28,66.04,9.64,27.91,36.39,46.17,66.09,41.23.52-.09.9-.38,1.16-.76,22.4-.54,41.99-17.77,48.25-39.2,7.04-24.1-.21-60.37-25.19-71.55-21.95-9.81-54.14-10.47-74.03,4.23Zm64.63-2.03c15.19,20.94,23.63,49.74,6.45,72.33-19.57,25.69-52.86,18.27-76.51,3.73-.8-.5-1.56-.35-2.08.07-2.88-5.22-5.1-10.99-6.45-17.27-6.52-30.91,10.52-58.88,42.79-62.52,11.6-1.32,24.17-.43,35.56,3,0,.21.07.45.24.66Z"/>
    <path class="cls-2" d="m1034.07,673.64c1.23.35,2.08-.38,2.36-1.3,12.26,4.89,25.8,6.81,39.77,4.8.99-.12,1.47-.9,1.54-1.75,32.68.19,63.42-21.08,74.91-51.96,11.63-31.33,1.94-68.69-22.02-91.61-12.31-21.43-38.52-31.33-62.31-34.69-33.72-4.77-65.15,5.1-86.13,32.75-39.32,51.84-8.86,126.32,51.89,143.76Zm118.36-80.98c1.47,44.14-36.15,79.73-79.73,78.95-1.09,0-1.63.73-1.7,1.56-44.73,1.65-80.77-33.67-82.75-78.59-.95-21.64,5.98-44.59,21.53-60.18,16.19-16.26,40.34-23.25,62.85-21.9,43.17,2.55,78.36,36.48,79.8,80.17Z"/>
  </g>
  <g>
    <path class="cls-1" d="m1524.49,321.39c.05,1.63,1.37,2.39,2.6,2.27,13.11,10.04,27.76,19.14,42.96,25.76-13.42,12.74-27.1,24.57-42.6,34.81-1.51,1.02-1.37,2.84-.47,3.9-1.39,10-2.86,20.94-2.15,30.95.05.83.59,1.47,1.23,1.82-.85.61-.71,2.15.47,2.58,2.39.9,4.61-.71,5.65-2.84.12-.24.21-.5.31-.76.8.28,1.75.21,2.58-.5,28.1-24.39,58.39-45.42,87.71-68.19,1.39-1.06.12-3.07-1.35-3.07l.02-.19c1.68.21,2.74-2.13,1.11-3.28-29.47-20.94-62.17-39.06-94.19-55.79-2.29-1.18-4.28,1.37-3.4,3.19-.71,9.69-.78,19.66-.47,29.35Z"/>
    <path class="cls-1" d="m1404.85,321.39c.05,1.63,1.37,2.39,2.6,2.27,13.11,10.04,27.76,19.14,42.96,25.76-13.42,12.74-27.1,24.57-42.6,34.81-1.51,1.02-1.37,2.84-.47,3.9-1.39,10-2.86,20.94-2.15,30.95.05.83.59,1.47,1.23,1.82-.85.61-.71,2.15.47,2.58,2.39.9,4.61-.71,5.65-2.84.12-.24.21-.5.31-.76.8.28,1.75.21,2.58-.5,28.1-24.39,58.39-45.42,87.71-68.19,1.39-1.06.12-3.07-1.35-3.07l.02-.19c1.68.21,2.74-2.13,1.11-3.28-29.47-20.94-62.17-39.06-94.19-55.79-2.29-1.18-4.28,1.37-3.4,3.19-.71,9.69-.78,19.66-.47,29.35Z"/>
    <path class="cls-1" d="m1278.96,321.39c.05,1.63,1.37,2.39,2.6,2.27,13.11,10.04,27.76,19.14,42.96,25.76-13.42,12.74-27.1,24.57-42.6,34.81-1.51,1.02-1.37,2.84-.47,3.9-1.39,10-2.86,20.94-2.15,30.95.05.83.59,1.47,1.23,1.82-.85.61-.71,2.15.47,2.58,2.39.9,4.61-.71,5.65-2.84.12-.24.21-.5.31-.76.8.28,1.75.21,2.58-.5,28.1-24.39,58.39-45.42,87.71-68.19,1.39-1.06.12-3.07-1.35-3.07l.02-.19c1.68.21,2.74-2.13,1.11-3.28-29.47-20.94-62.17-39.06-94.19-55.79-2.29-1.18-4.28,1.37-3.4,3.19-.71,9.69-.78,19.66-.47,29.35Z"/>
    <path class="cls-1" d="m1163.01,321.39c.05,1.63,1.37,2.39,2.6,2.27,13.11,10.04,27.76,19.14,42.96,25.76-13.42,12.74-27.1,24.57-42.6,34.81-1.51,1.02-1.37,2.84-.47,3.9-1.39,10-2.86,20.94-2.15,30.95.05.83.59,1.47,1.23,1.82-.85.61-.71,2.15.47,2.58,2.39.9,4.61-.71,5.65-2.84.12-.24.21-.5.31-.76.8.28,1.75.21,2.58-.5,28.1-24.39,58.39-45.42,87.71-68.19,1.39-1.06.12-3.07-1.35-3.07l.02-.19c1.68.21,2.74-2.13,1.11-3.28-29.47-20.94-62.17-39.06-94.19-55.79-2.29-1.18-4.28,1.37-3.4,3.19-.71,9.69-.78,19.66-.47,29.35Z"/>
    <path class="cls-2" d="m1507.76,276.09c-.19.99.36,1.71,1.06,2.03,3.73,7.46,9.43,14.45,15.48,20.24,0,.26-.01.5,0,.73,0,1.63,1.32,2.39,2.55,2.33,9.21,7.38,19.22,14.3,29.67,20.19-17.17,9.51-32.85,22.07-47.95,34.44-1.4,1.15-.52,2.85.82,3.3-2.8,7.43-4.17,15.79-3.36,23.68-.22.54-.17,1.18.22,1.68.06.4.08.78.16,1.19.21,1.3,1.81,1.46,2.63.75,2.42,1.52,4.82,2.97,6.98,4.94,2.71,2.43,4.98,5.27,6.99,8.29.03.54.33,1.07.96,1.32,2.62,1.03,5.13-1.02,6.04-3.48.8.33,1.74.28,2.59-.41,28.63-23.75,59.43-44.05,89.27-66.14.77-.57.74-1.4.33-2.07.82.18,1.88-.48,1.52-1.41-3.49-9.32-7.32-18.63-11.48-27.66.64-.24.95-1.18.18-1.7-30.95-20.81-64.12-38.78-96.38-57.49-1.56-.91-3.2.52-2.91,2.08-.17.19-.32.44-.35.77-.99,10.94-2.87,21.65-5.03,32.41Zm113.43,51.75c.07.17.16.31.2.45-.49-.25-1.08-.33-1.65-.01-32.39,17.8-62.26,41.83-90.67,65.35-.31.28-.53.58-.68.88-.22.18-.34.44-.33.8.07.99-.3,1.84-1.1,2.46-.22.18-.46.3-.69.39.15-.21.25-.44.32-.73,2.12-9.9,2.28-20.96,2.31-31.12.05-.12.05-.26.06-.4,16.16-9.84,31.56-21.72,44.04-35.99.41-.46.54-1,.51-1.5.8-1.05.89-2.79-.46-3.58-14.69-8.71-29.48-17.09-43.95-26.21.46-8.57.59-17.34.27-25.97,30.04,18.42,59.89,37.69,90.57,55,.44.25.87.28,1.25.19Z"/>
    <path class="cls-2" d="m1388.13,273.31c-.19.99.36,1.71,1.06,2.03,3.73,7.46,9.43,14.45,15.48,20.24,0,.26-.01.5,0,.73,0,1.63,1.32,2.39,2.55,2.33,9.21,7.38,19.22,14.3,29.67,20.19-17.17,9.51-32.85,22.07-47.95,34.44-1.4,1.15-.52,2.85.82,3.3-2.8,7.43-4.17,15.79-3.36,23.68-.22.54-.17,1.18.22,1.68.06.4.08.78.16,1.19.21,1.3,1.81,1.46,2.63.75,2.42,1.52,4.82,2.97,6.98,4.94,2.71,2.43,4.98,5.27,6.99,8.29.03.54.33,1.07.96,1.32,2.62,1.03,5.13-1.02,6.04-3.48.8.33,1.74.28,2.59-.41,28.63-23.75,59.43-44.05,89.27-66.14.77-.57.74-1.4.33-2.07.82.18,1.88-.48,1.52-1.41-3.49-9.32-7.32-18.63-11.48-27.66.64-.24.95-1.18.18-1.7-30.95-20.81-64.12-38.78-96.38-57.49-1.56-.91-3.2.52-2.91,2.08-.17.19-.32.44-.35.77-.99,10.94-2.87,21.65-5.03,32.41Zm113.43,51.75c.07.17.16.31.2.45-.49-.25-1.08-.33-1.65-.01-32.39,17.8-62.26,41.83-90.67,65.35-.31.28-.53.58-.68.88-.22.18-.34.44-.33.8.07.99-.3,1.84-1.1,2.46-.22.18-.46.3-.69.39.15-.21.25-.44.32-.73,2.12-9.9,2.28-20.96,2.31-31.12.05-.12.05-.26.06-.4,16.16-9.84,31.56-21.72,44.04-35.99.41-.46.54-1,.51-1.5.8-1.05.89-2.79-.46-3.58-14.69-8.71-29.48-17.09-43.95-26.21.46-8.57.59-17.34.27-25.97,30.04,18.42,59.89,37.69,90.57,55,.44.25.87.28,1.25.19Z"/>
    <path class="cls-2" d="m1271.78,270.61c-.19.99.36,1.71,1.06,2.03,3.73,7.46,9.43,14.45,15.48,20.24,0,.26-.01.5,0,.73,0,1.63,1.32,2.39,2.55,2.33,9.21,7.38,19.22,14.3,29.67,20.19-17.17,9.51-32.85,22.07-47.95,34.44-1.4,1.15-.52,2.85.82,3.3-2.8,7.43-4.17,15.79-3.36,23.68-.23.54-.17,1.18.22,1.68.06.4.08.78.16,1.19.21,1.3,1.81,1.46,2.63.75,2.42,1.52,4.82,2.97,6.98,4.94,2.71,2.43,4.98,5.27,6.99,8.29.03.54.33,1.07.96,1.32,2.62,1.03,5.13-1.02,6.04-3.48.8.33,1.74.28,2.59-.41,28.63-23.75,59.43-44.05,89.27-66.14.77-.57.74-1.4.33-2.07.82.18,1.88-.48,1.52-1.41-3.49-9.32-7.32-18.63-11.48-27.66.64-.24.95-1.18.18-1.7-30.95-20.81-64.12-38.78-96.38-57.49-1.56-.91-3.2.52-2.91,2.08-.17.19-.32.44-.35.77-.99,10.94-2.87,21.65-5.03,32.41Zm113.43,51.75c.07.17.16.31.2.45-.49-.25-1.08-.33-1.65-.01-32.39,17.8-62.26,41.83-90.67,65.35-.31.28-.53.58-.68.88-.22.18-.34.44-.33.8.07.99-.3,1.84-1.1,2.46-.22.18-.46.3-.69.39.15-.21.25-.44.32-.73,2.12-9.9,2.28-20.96,2.31-31.12.05-.12.05-.26.06-.4,16.16-9.84,31.56-21.72,44.04-35.99.41-.46.54-1,.51-1.5.8-1.05.89-2.79-.46-3.58-14.69-8.71-29.48-17.09-43.95-26.21.46-8.57.59-17.34.27-25.97,30.04,18.42,59.89,37.69,90.57,55,.44.25.87.28,1.25.19Z"/>
    <path class="cls-2" d="m1154.41,267.89c-.19.99.36,1.71,1.06,2.03,3.73,7.46,9.43,14.45,15.48,20.24,0,.26-.01.5,0,.73,0,1.63,1.32,2.39,2.55,2.33,9.21,7.38,19.22,14.3,29.67,20.19-17.17,9.51-32.85,22.07-47.95,34.44-1.4,1.15-.52,2.85.82,3.3-2.8,7.43-4.17,15.79-3.36,23.68-.22.54-.17,1.18.22,1.68.06.4.08.78.16,1.19.21,1.3,1.81,1.46,2.63.75,2.42,1.52,4.82,2.97,6.98,4.94,2.71,2.43,4.98,5.27,6.99,8.29.03.54.33,1.07.96,1.32,2.62,1.03,5.13-1.02,6.04-3.48.8.33,1.74.28,2.59-.41,28.63-23.75,59.43-44.05,89.27-66.14.77-.57.74-1.4.33-2.07.82.18,1.88-.48,1.52-1.41-3.49-9.32-7.32-18.63-11.48-27.66.64-.24.95-1.18.18-1.7-30.95-20.81-64.12-38.78-96.38-57.49-1.56-.91-3.2.52-2.91,2.08-.17.19-.32.44-.35.77-.99,10.94-2.87,21.65-5.03,32.41Zm113.43,51.75c.07.17.16.31.2.45-.49-.25-1.08-.33-1.65-.01-32.39,17.8-62.26,41.83-90.67,65.35-.31.28-.53.58-.68.88-.22.18-.34.44-.33.8.07.99-.3,1.84-1.1,2.46-.22.18-.46.3-.69.39.15-.21.25-.44.32-.73,2.12-9.9,2.28-20.96,2.31-31.12.05-.12.05-.26.06-.4,16.16-9.84,31.56-21.72,44.04-35.99.41-.46.54-1,.51-1.5.8-1.05.89-2.79-.46-3.58-14.69-8.71-29.48-17.09-43.95-26.21.46-8.57.59-17.34.27-25.97,30.04,18.42,59.89,37.69,90.57,55,.44.25.87.28,1.25.19Z"/>
  </g>
  <g>
    <path class="cls-1" d="m1013.74,865.75c4.99,7.77,10.35,15.74,16.35,22.8-.38,2.08,2.39,4.16,4.32,2.29,14.37-13.97,28.21-28.43,41.33-43.55,11.32-13.07,21.29-27.17,34.62-38.3.05.19.14.38.26.59,17.44,27.58,38.68,53.17,60.66,77.2.9.97,2.72.99,3.59,0,24.41-27.69,50.43-53.88,74.98-81.38.05.14.14.28.24.45,18.86,27.72,36.03,56.45,51.51,86.2.71,1.37,2.91,1.7,3.95.5,27.93-32.11,56.21-64.3,81.78-98.37.43-.54.38-1.16.12-1.68.59-.33.94-.99.45-1.72-5.39-7.61-12.52-14.25-19.49-20.39-1.89-1.65-4.54.76-3.33,2.55-.26.07-.52.17-.78.38-21.15,18.41-39.91,40.29-59.14,60.73-9.71-15.45-20.89-29.99-32.02-44.42-5.51-7.16-11.03-14.34-16.78-21.34-2.06-2.5-4.32-6.45-8.08-6.45-4.77,0-9.03,6.52-11.74,9.29-6.88,6.99-13.75,13.99-20.65,20.98-13.71,13.94-27.43,27.88-41.16,41.82-.07-.12-.09-.24-.19-.33-19.47-23.16-40.15-45.32-60.33-67.86-.78-.85-2.1-.87-3.05-.4-18.36,9.4-31.47,26.63-45.25,41.49-16.75,18.05-33.51,36.11-50.26,54.16-.4.43-.61.9-.69,1.37-1.3.47-2.17,1.87-1.21,3.4Z"/>
    <path class="cls-2" d="m990.38,885.72c.02.57.33,1.09.92,1.37.07.14.12.31.24.45,5.91,7.59,11.48,15.26,16.94,23.16-.9.92-.52,2.91,1.16,2.91,7.18.09,14.41-.12,21.6-.31.9.66,2.15.8,3.19-.19,14.37-13.97,28.19-28.43,41.33-43.57,7.09-8.15,13.63-16.75,20.82-24.74.07.14.14.28.26.43,14.86,16.8,28.43,34.07,42.01,51.84-.28.85,0,1.89,1.09,2.29.31.12.59.21.9.31.21.31.45.59.69.9.57.76,1.54.59,1.96.02,8.67,3,17.65,5.48,26.49,7.92.31.07.57.05.8-.05.19.19.35.38.52.57.87.97,2.72,1.02,3.59,0,20.63-23.39,42.39-45.72,63.47-68.69,10.94,17.49,21.08,35.28,31.43,53.07.05.12.12.24.21.35.33.59.66,1.18,1.02,1.77.35.61,1.21.61,1.7.24,9.48,6.43,19.02,12.76,28.9,18.55.71,1.37,2.91,1.68,3.95.5,27.93-32.11,56.21-64.3,81.78-98.37.43-.57.38-1.16.12-1.68.59-.33.95-1.02.43-1.72-5.36-7.61-12.5-14.27-19.47-20.39-.99-.87-2.2-.61-2.93.09-9.9-1.06-19.83-1.91-29.75-2.55-2.1-.14-2.46,2.41-1.21,3.52-14.01,14.65-27.79,29.49-41.99,43.97-6.29-8.74-12.85-17.3-19.4-25.83-5.51-7.16-11.06-14.32-16.78-21.31-2.06-2.5-4.32-6.45-8.08-6.45-1.54,0-3.02.69-4.42,1.68-8.22-.17-16.49-.38-24.72-.14-1.09.05-1.65.83-1.73,1.68-.19-.99-1.44-1.75-2.43-.85-18.83,16.99-36.32,35.66-53.24,54.54-15.62-17.86-31.73-35.33-47.54-53-.78-.87-2.1-.9-3.07-.4-.69.35-1.35.73-2.01,1.11-.09,0-.17-.05-.26-.05-9.95.35-19.99.8-29.89,1.77-1.23.12-1.89,1.13-1.89,2.1h-1.49c0-.73-.95-1.42-1.61-.95-15.81,11.46-29.21,28.07-42.25,42.46-14.34,15.83-28.1,32.18-41.4,48.91-.73.92-.52,2.01.05,2.76Zm124.79-89.08c6.66,5.41,12.43,13.87,18.17,20.27,12.59,14.08,25.02,28.38,38.04,42.06.28.31.59.47.9.57-.05,1.98,2.53,3.8,4.32,1.96,11.65-11.81,23.3-23.65,34.92-35.49,5.29-5.39,10.59-10.75,15.88-16.14,5.15-5.22,11.15-14.13,17.46-17.75,6.66-3.8,10.68,5.46,14.77,10.63,5.81,7.33,11.53,14.72,17.18,22.16,8.74,11.51,17.13,23.25,26.18,34.5-.07,1.96,2.46,3.76,4.21,1.94,19.92-20.75,41.49-40.97,59.31-63.56.21-.26.31-.54.35-.83,6.14,5.46,11.86,11.34,17.96,16.8-.17.09-.33.19-.5.35-27.17,31.07-53.05,63.26-80.08,94.47-15-28.64-31.59-56.33-49.76-83.06-.9-1.32-2.43-1.37-3.52-.78-.47-1.11-1.91-1.77-3.1-.69-26.65,24.55-50.85,52.15-74.81,79.35-21.17-23.42-39.84-48.42-58.29-74.01-.83-1.18-2.2-1.28-3.21-.78-.43-.8-1.44-1.37-2.39-.83-14.65,8.6-24.53,23.94-35.47,36.53-13.09,15.05-26.82,29.49-41.09,43.41-3.95-7.18-8.74-14.13-13.56-20.77.07-.05.12-.09.19-.14,24.91-26.87,48.94-55.17,75.21-80.74,3.12-3.05,6.33-5.86,9.85-8.41,4.77-3.47,6.1-4.91,10.87-1.04Z"/>
  </g>
  <g>
    <path class="cls-1" d="m1187.68,43.13c0-1.11-.71-2.2-2.13-2.2-68.45.26-137.15.5-205.55,2.88-1.44.05-1.99,1.42-1.65,2.46-.28.24-.5.57-.54.95-2.84,24.22-.02,50.02.26,74.41.28,24.03.45,48.06.57,72.12.24,48.84.05,97.68-.54,146.53-.05,2.62,3.28,3.12,4.56,1.49l.97.07c0,1.16,1.75,1.84,2.62.66,35.14-48.35,67.89-98.56,101.54-147.94,33.67-49.41,67.23-98.89,100.83-148.37.87-1.3.17-2.53-.92-3.05Zm-62.05,31.07c-40.17,56.85-80.13,114.6-114.86,174.98,2.25-56.21,2.36-112.55,4.28-168.79,36.89-3.24,73.56-5.95,110.59-6.19Z"/>
    <g>
      <path class="cls-2" d="m1023.64,266.16c-.57.99.05,1.87.85,2.15.83.5,2.15.14,2.22-1.13v-.09c40.71-61.04,79.7-123.04,122.12-182.94.83-1.16.45-2.27-.38-2.95-.4-.47-.99-.8-1.8-.8-39.06,0-78.43,1.56-117.13,6.95-.83.12-1.3.71-1.49,1.39-.71.31-1.3.97-1.32,1.96-1.89,58.25-4.32,116.85-2.88,175.14-.07.09-.12.21-.19.33Zm7.61-174.57c27.41-2.41,54.7-4.54,82.11-5.55-28.14,39.3-54.44,79.47-84.71,117.25.83-37.24,1.32-74.48,2.6-111.7Z"/>
      <path class="cls-2" d="m971.19,36.03c.07.09.17.19.24.28-1.56,48.42.73,97.19,1.09,145.65.35,48.58.33,97.14.28,145.72,0,1.18.66,1.91,1.49,2.24,1.7,12.05,12.48,22.05,23.87,24.98,1.06.28,1.8-.31,2.06-1.06.57.54,1.63.66,2.24-.17,35.14-48.35,67.86-98.56,101.54-147.94,33.67-49.41,67.23-98.89,100.8-148.37.9-1.3.19-2.53-.9-3.05,0-1.11-.71-2.2-2.13-2.2h-.28c-5.62-7.28-12.1-13.97-18.67-20.34-.43-.43-.92-.57-1.37-.59-.17-.64-.69-1.18-1.56-1.21-69.14-2.39-138.78.57-207.94,1.23-2.91.02-3.14,4.11-.76,4.82Zm128.9,167.41c-33.48,49.46-68.08,98.37-100.05,148.84-.17-.26-.4-.5-.73-.66,0-.05.02-.09.02-.17.61-49.62.8-99.24.54-148.87-.12-24.81-.43-49.62-.83-74.43-.35-22.61,1.25-46.62-2.22-69.05.21-.09.38-.24.52-.43,67.41.66,135.07-.73,202.48-2.15-33.27,48.96-66.56,97.9-99.74,146.9Z"/>
    </g>
  </g>
  <path class="cls-2" d="m1684.8,913.97c7.44.66,15.19,1.35,22.95,1.63,0,.92,0,1.83,0,2.75.04,7.75-1.04,16.09,1.74,23.4.19.49.81.49,1,0,2.76-7.26,1.7-15.72,1.74-23.4,0-.88,0-1.77,0-2.65,7.3.1,14.55-.23,21.5-1.41.54-.09.48-.91,0-1.04-6.88-1.83-14.14-2.8-21.48-3.34.02-6.23.05-12.47.06-18.7,0-3-4.67-3.01-4.67,0,.02,6.14.04,12.27.06,18.41-7.73-.39-15.49-.39-22.93-.39-3.1,0-3,4.48,0,4.75Z"/>
  <path class="cls-2" d="m1546.44,856.11c22.02,3.48,44.04,6.96,66.07,10.43,2.21.35,3.85-1.62,2.84-3.7-8.34-17.21-16.36-34.62-25.41-51.47-1.28-2.37-4.54-.29-3.53,2.06,6.93,16.05,14.76,31.72,22.41,47.45-19.11-3.04-38.23-6.07-57.35-9.09,10.51-15.33,22.44-29.37,35.89-42.23,2.37-2.27-1.23-5.86-3.59-3.6-14.68,14.04-27.6,29.5-38.84,46.42-.84,1.26-.07,3.48,1.52,3.73Z"/>
  <path class="cls-2" d="m1206.69,686.76c12.34.72,24.73.74,37.09,1.34,12.28.59,24.74,2.19,37.02,1.44,1.55-.09,2.05-2.45.38-2.84-23.43-5.42-50.51-5.25-74.49-4.62-3.03.08-3,4.51,0,4.69Z"/>
  <path class="cls-2" d="m1206.66,668.39c12.82.72,25.67,1.11,38.5,1.61,11.22.44,23.25,2.25,34.31.09,1.29-.25,1.16-2.15,0-2.48-10.86-3.06-23.1-2.19-34.31-2.66-12.83-.54-25.66-1.18-38.5-1.51-3.2-.08-3.16,4.77,0,4.94Z"/>
  <path class="cls-2" d="m1706.63,172.01c5.59,3.25,11.17,6.49,16.76,9.74,3.3,1.92,16.64,7.65,16.96,11.42.34,3.98-10.69,9.76-13.8,12.08-5.83,4.33-11.67,8.66-17.5,12.99-1.39,1.03-1.88,3.46,0,4.38,12.19,5.94,24.38,11.89,36.59,17.81-11.05,7.76-22.56,14.65-34.13,21.63-1.93,1.16-.24,3.79,1.72,2.94,13.79-5.96,26.44-14.02,38.6-22.79,1.4-1.01,1.84-3.43,0-4.33-12.21-5.99-24.44-11.94-36.67-17.9,6.4-4.75,12.8-9.5,19.2-14.25,4.72-3.5,10.83-6.65,14.24-11.55.67-.97.31-2.27-.4-3.07-4.12-4.73-11.26-7.35-16.66-10.49-6.23-3.62-12.46-7.24-18.69-10.86,11.25-6.94,22.5-13.87,33.75-20.81,2.78-1.71.23-6.11-2.57-4.39-12.47,7.69-24.94,15.38-37.41,23.07-1.61.99-1.68,3.41,0,4.39Z"/>
  <path class="cls-2" d="m1236.26,172.7c.67,2.44,4.84,2.06,4.56-.62-3.55-34.84,55.03-29.68,43.6,2.22-.62,1.72,2.1,2.85,2.95,1.24,8.33-15.74-4.54-31.61-20.87-33.18-16.17-1.55-35.01,12.84-30.24,30.33Z"/>
  <path class="cls-2" d="m1230.09,192.79c16.26,2.34,31.59-10.78,32.45-26.92.11-2.04-3.21-2.53-3.6-.49-2.51,12.95-14.04,24.71-28.16,22.35-14.8-2.47-20.66-16.19-19.92-29.68.14-2.55-3.62-2.9-4.33-.59-4.7,15.4,8,33.07,23.56,35.31Z"/>
  <path class="cls-2" d="m983.66,438.31c1.13,3.01,6,1.71,4.86-1.34-7.38-19.73,15.43-39.09,32.33-23.64,6.85,6.26,8.42,17.86,17.51,21.85,17.67,7.76,31.38-17.12,30.23-31.42-.18-2.21-3.29-2.23-3.45,0-.62,8.57-4.65,22.11-14.01,25.3-7.72,2.63-14.43-.84-18.24-6.92-1.28-2.04-2.32-4.21-3.62-6.24-4.66-7.21-11.34-12.04-20.08-12.89-19.5-1.89-32.09,17.78-25.53,35.29Z"/>
  <path class="cls-2" d="m1218.82,964.1c42.9,27.75,90.77,46.33,133.57,74.42,1.13.74,2.42-.26,2.58-1.37.49-.37.85-.94.91-1.73,1.86-24.15,3.5-48.82,4.03-73.04,2.24-.45,2.1-4.02-.43-4.12-43.09-1.75-86.29-1.87-129.41-2.57.09-.77-.54-1.64-1.45-1.33-3.44,1.17-6.8,2.63-10.12,4.09-1.01.44-.98,1.46-.47,2.16-.62,1.09-.57,2.6.78,3.48Zm137.27-1.61c-3.69,23.01-5.13,47.41-4.86,70.73-38.53-30.96-87.62-46.41-129.06-72.97.89-.42,1.79-.82,2.68-1.26.28.94,1.05,1.73,2.32,1.75,42.95.69,85.96,2,128.92,1.75Z"/>
  <path class="cls-2" d="m1531.95,736.09c.02,2.84,4,2.69,4.31,0,2.87-24.98,1-51.44-2.8-76.24-.42-2.71-5.16-2.11-4.84.65,2.97,25.35,3.18,50.12,3.33,75.58Z"/>
  <path class="cls-2" d="m1616.28,61.38c9.24-.36,18.45-.42,27.65-.28-.18,7.16.01,14.3.75,21.32.28,2.65,4.23,2.78,4.23,0,0-7.11,0-14.16.07-21.21,8.52.19,17.04.52,25.58.97,2.35.12,2.2-3.27,0-3.57-8.48-1.13-16.99-1.84-25.52-2.24.14-8.1.42-16.2,1.04-24.36.15-1.93-3.13-2.42-3.43-.46-1.22,8.07-2.12,16.34-2.54,24.62-9.27-.29-18.55-.21-27.83.18-3.22.13-3.24,5.15,0,5.02Z"/>
  <path class="cls-1" d="m1443.06,873.22c10.45,6.27,20.57,12.99,30.42,20.15-9.78,6.4-19.57,12.8-29.35,19.21-1.96,1.28-1.4,3.82.61,4.64,11.43,4.65,22.85,9.29,34.28,13.94,3.03,1.23,4.35-3.68,1.35-4.9-9.84-4-19.69-8-29.53-12,9.46-6.19,18.92-12.39,28.39-18.58,1.7-1.12,1.54-3.23,0-4.38-9.77-7.24-19.83-13.99-30.19-20.34,10.83-7.25,21.89-14.1,33.24-20.51,1.7-.96,1.57-3.38,0-4.37-9.95-6.25-19.91-12.5-29.86-18.76,9.91-5.84,19.48-12.14,28.68-19.07,1.47-1.11,1.74-3.26,0-4.32-9.41-5.71-19.13-9.87-29.83-12.51-2.35-.58-3.28,2.86-1,3.61,8.83,2.92,17.04,6.63,24.98,11.27-9.34,6.74-18.94,13.02-28.95,18.76-1.69.97-1.58,3.37,0,4.36,9.94,6.24,19.88,12.49,29.81,18.73-11.27,6.49-22.28,13.36-33.04,20.69-1.55,1.06-1.71,3.35,0,4.37Z"/>
  <path class="cls-1" d="m1669.39,375.97c.43,3.21,5.33,1.85,4.88-1.35-1.62-11.5-.42-28.24,13.4-31.64,9.73-2.39,14.85,5.36,18.52,12.81,3.76,7.64,7.33,16.17,16.47,18.29,20.72,4.82,29.27-20.13,23-35.71-.74-1.85-3.29-1.16-2.98.82,1.73,11.07,1.21,28.02-13.02,30.28-9.77,1.55-14.51-6.1-18.11-13.49-3.74-7.67-7.46-16.16-16.72-18-22.11-4.4-27.59,22.09-25.44,37.98Z"/>
  <path class="cls-1" d="m1248.33,77.25c11.55,6.4,23.03,12.92,34.68,19.13,2.8,1.49,5.27-2.68,2.5-4.27-10.24-5.88-20.62-11.52-30.96-17.22,11.02-7.07,22.05-14.13,33.05-21.24,1.63-1.06,1.57-3.23,0-4.3-10.28-6.99-20.44-14.24-31.05-20.73-2.3-1.41-4.07,1.97-2.05,3.51,8.85,6.77,18.14,12.99,27.34,19.29-11.18,7.13-22.34,14.29-33.51,21.44-1.55,1-1.73,3.42,0,4.37Z"/>
  <path class="cls-1" d="m981.42,774.77c17.3.97,41.7-2.8,45.17-23.73,3.14-18.92-15.85-31.33-31.94-34.43-2.48-.48-3.44,2.95-1.04,3.79,13.34,4.66,32.88,14.32,27.45,32.13-5.05,16.58-25.45,17.79-39.64,17.22-3.24-.13-3.21,4.84,0,5.02Z"/>
  <path class="cls-1" d="m998.76,804.86c3.26-.15,3.28-5.23,0-5.08-14.63.66-33.43-5.33-35.18-22.33-2.22-21.54,20.84-30.16,38.33-30.16,2.44,0,2.35-3.51,0-3.73-20.17-1.92-44.22,9.41-43.6,32.69.55,20.51,22.83,29.41,40.46,28.62Z"/>
  <path class="cls-1" d="m1148.58,1058.52c4.65-7.79,9.23-15.57,14.31-23.09,3.58-5.29,13.45-24.48,21.25-22.02,2.13.67,7.77,8.38,9.32,10.05,3.11,3.35,6.23,6.69,9.35,10.02,7.27,7.78,14.44,15.71,22.21,23,1.75,1.64,4.03-.78,2.58-2.58-8.6-10.67-18.19-20.59-27.47-30.66-4.17-4.52-11.39-16.57-18.4-16.66-6.91-.08-12.51,11.31-15.99,16.03-7.84,10.64-15.15,21.76-21.38,33.42-1.48,2.77,2.6,5.17,4.22,2.47Z"/>
  <path class="cls-1" d="m1896.89,291.78c2.24-5.03,30.65-2.31,36.38-2.36,10.9-.09,21.81-.13,32.7-.39,2.37-.06,2.38-3.62,0-3.69-17.12-.47-34.26-.56-51.39-.68-6.46-.04-19.68-3.19-21.85,5.37-.61,2.39,3.07,4.19,4.15,1.75Z"/>
  <path class="cls-2" d="m946.45,573.23s-.05-.05-.07-.05c.12.05.14.07.07.05Z"/>
  <path class="cls-2" d="m954.76,654.2c.17-.76.14-.59,0,0h0Z"/>
  <g>
    <path class="cls-2" d="m539.26,837.48c-24.03.28-48.06.45-72.12.57-48.84.24-97.68.05-146.53-.54-2.62-.05-3.12,3.28-1.49,4.56l-.07.97c-1.16,0-1.84,1.75-.66,2.62,48.35,35.14,98.56,67.89,147.94,101.54,49.41,33.67,98.89,67.23,148.37,100.83,1.3.87,2.53.17,3.05-.92,1.11,0,2.2-.71,2.2-2.13-.26-68.45-.5-137.15-2.88-205.55-.05-1.44-1.42-1.99-2.46-1.65-.24-.28-.57-.5-.95-.54-24.22-2.84-50.02-.02-74.41.26Z"/>
    <path class="cls-1" d="m489.32,871.65c-24.03.28-48.06.45-72.12.57-48.84.24-97.68.05-146.53-.54-2.62-.05-3.12,3.28-1.49,4.56l-.07.97c-1.16,0-1.84,1.75-.66,2.62,48.35,35.14,98.56,67.89,147.94,101.54,49.41,33.67,98.89,67.23,148.37,100.83,1.3.87,2.53.17,3.05-.92,1.11,0,2.2-.71,2.2-2.13-.26-68.45-.5-137.15-2.88-205.55-.05-1.44-1.42-1.99-2.46-1.65-.24-.28-.57-.5-.95-.54-24.22-2.84-50.02-.02-74.41.26Z"/>
  </g>
  <g>
    <path class="cls-1" d="m-84.59,839.4c-2.34.26-2.88,3.12-1.37,4.21-1.35-1.09-4.14-.45-4.42,1.91-7.4,64.7,7.28,141.87,74.29,169.23,60.33,24.67,129.3-.64,161.44-56.57,18.17-31.62,25.21-70.72,16.87-106.4-.21-.99-.92-1.39-1.65-1.37,1.32-.87,1.04-3.17-.95-3.33-10.75-.99-22.07-1.02-32.87-.5-.76-1.63-3.47-1.42-3.54.73-.85,29.16-3.17,58.74-18.79,84.26-15.52,25.35-41.14,41.59-71.27,41.04-30.46-.59-60.52-10.16-71.74-40.83-10.4-28.33-10.73-59.76-7.47-89.37.07-.64-.14-1.13-.52-1.54.45-1.13-.09-2.62-1.72-2.62-12-.09-24.36-.17-36.29,1.13Z"/>
    <path class="cls-2" d="m-69.9,846.13c-4.3,3.4-7.66,8.7-11.2,12.88-3.19,3.78-7.66,7.68-9.64,12.24-.31.73.35,1.49,1.11,1.11,1.09-.52,2.1-1.23,3.07-1.98.02.66.28,1.32.85,1.75-1.35-1.11-4.14-.45-4.42,1.91-7.4,64.7,7.28,141.87,74.29,169.23,54.87,22.42,116.87,3.52,151.84-42.18,38.33-38.09,56.83-94.42,42.96-148.04-.12-.45-.33-.78-.59-1.02-.07-.52-.45-1.02-1.16-1.06-11.04-.66-22.05-.69-33.08-.69-1.58,0-2.15,1.54-1.72,2.67-6.26,7.14-12.38,14.37-18.48,21.62-.05.05-.05.09-.07.14-.21.28-.38.64-.4,1.11-.73,25.47-2.6,51.3-13.49,74.43-31.14,22.78-71.67,39.79-107.73,16.66-37.1-23.82-30.41-78.33-27.06-116.23.14-1.65-1.11-2.36-2.39-2.27-.38-1.06-1.63-1.72-2.79-1.23-12.17-.61-24.72-.5-36.96-.24-.31-1.13-1.82-1.72-2.95-.83Zm197.33,33.62c9.71.45,19.8.43,29.56-.31.35.71,1.39,1.02,2.13.38-.28.4-.45.9-.35,1.49,7.21,48.42-6.64,101.32-42.37,134.36-1.02.85-2.01,1.7-3.05,2.53-.14.12-.21.26-.21.4-8.41,7.21-17.91,13.37-28.57,18.19-57.84,26.11-129.02,4.04-156.45-54.3-15.81-33.6-17.3-72.14-13.16-108.46.09-.87-.19-1.51-.64-1.91.33.26.78.4,1.35.43,11.2.31,22.64-.64,33.81-1.65-4.8,31.07-3.17,67.3,9.52,96.46,12.55,28.8,42.98,37.59,72.24,38.75,68.34,2.69,98.98-67.34,96.2-126.35Z"/>
  </g>
  <g>
    <path class="cls-1" d="m726.46,889.89c-.66.09-1.35.21-2.01.31-.95.14-1.3.97-1.25,1.77-.64.38-1.13,1.04-1.11,2.03,1.68,55.77,4.37,111.29,1.04,167.06-.14,2.67,3.45,2.88,4.39.8l.4.17c-.35,1.02.17,2.34,1.63,2.41,56.9,2.62,114.79-.28,171.72-1.49.99-.02,1.63-.52,2.01-1.16,1.32.21,2.79-.5,2.81-2.22,0-.52.02-1.04.02-1.56.76-55.48,1.54-111.55-.52-166.99-.02-.78-.33-1.35-.78-1.72.97-1.42.33-3.97-1.96-4.09-58.1-2.98-118.69-4.18-176.39,4.68Zm119.59,137.12c-9.97.12-19.94.28-29.89.43-19.71.31-39.46.21-59.14,1.02,1.16-36.74,1.11-73.91.19-110.66-.02-.73-.31-1.25-.71-1.65,37.67-.78,75.43.26,113.07-.92-.73,37.33-.09,75.28,1.65,112.57-8.13-1.91-16.85-.9-25.17-.78Z"/>
    <g>
      <path class="cls-2" d="m893.73,1010.14c.8-37.62.43-75.85-1.3-113.42-.07-1.73-1.54-2.43-2.84-2.25-.28-.64-.85-1.13-1.75-1.21-38.19-2.32-76.82-.95-115.03-.09-2.74.07-3.17,3.66-1.25,4.75-.64.38-1.11.99-1.13,1.96-.97,37.12-.99,74.72.19,111.84.05,1.13.76,1.82,1.58,2.03.26.9.99,1.63,2.22,1.63,19.92.24,39.89-.47,59.81-.78,9.19-.14,18.41-.26,27.6-.43,9.19-.14,19.07.8,27.95-1.7.31-.09.54-.28.69-.5,1.3.66,3.21.07,3.26-1.84Zm-6.1-112.83c-.59,31.05-.21,62.48.92,93.62-.21-.19-.47-.31-.8-.28-30.95,1.09-61.34,1.84-92.25-1.18-.8-30.53-1.89-60.94-1.3-91.49,31.14-.21,62.33.31,93.43-.66Z"/>
      <path class="cls-2" d="m764,845.78c-.19.26-.38.54-.57.8-.31.26-.54.54-.69.92-5.93,8.2-11.32,16.59-18.01,24.29-.05.07-.07.12-.09.19-.71.09-1.42.19-2.13.31-.92.14-1.3.97-1.23,1.77-.66.38-1.16,1.02-1.11,2.03,1.65,55.77,4.35,111.29,1.04,167.06-.17,2.67,3.47,2.88,4.39.78.09-.24.17-.5.19-.78,5.29-55.34,1.56-111.63-.59-167.06,0-.17-.07-.28-.09-.43,28.95-1.21,57.77-3.95,86.77-4.63,29.09-.69,58.15-.21,87.22,1.23-.09.26-.19.52-.19.83-1.72,55.43-.59,111.48.5,166.94h-.05c-56.97.24-114.91-1.21-171.72,2.88-.87.07-1.42.57-1.63,1.18-.38,1.04.17,2.36,1.63,2.41,56.88,2.65,114.77-.26,171.72-1.49.97,0,1.61-.5,2.01-1.16.14.05.31.05.47.05.28.09.61.07.95-.17.5-.19.9-.54,1.16-1.06,6.43-6.03,12.52-12.41,18.6-18.76.5-.54.57-1.13.43-1.68.47-.12.85-.47.83-1.13-1.44-57.51-3.38-114.63-.87-172.16.07-1.63-1.96-2.76-3.31-2.03-.19-.52-.64-.92-1.39-.87-57.04,2.43-113.75,3.59-170.77.19-.4-1.32-2.36-1.91-3.45-.45Z"/>
    </g>
  </g>
  <g>
    <path class="cls-2" d="m413.05,65.68c-14.96-20.23-43.41-24.13-66.04-16.28-27.91,9.64-46.17,36.39-41.23,66.09.09.52.38.9.76,1.16.54,22.4,17.77,41.99,39.2,48.25,24.1,7.04,60.37-.21,71.55-25.19,9.81-21.95,10.47-54.14-4.23-74.03Zm2.03,64.63c-20.94,15.19-49.74,23.63-72.33,6.45-25.69-19.57-18.27-52.86-3.73-76.51.5-.8.35-1.56-.07-2.08,5.22-2.88,10.99-5.1,17.27-6.45,30.91-6.52,58.88,10.52,62.52,42.79,1.32,11.6.43,24.17-3,35.56-.21,0-.45.07-.66.24Z"/>
    <path class="cls-2" d="m282.07,73.19c-.35,1.23.38,2.08,1.3,2.36-4.89,12.26-6.81,25.8-4.8,39.77.12.99.9,1.47,1.75,1.54-.19,32.68,21.08,63.42,51.96,74.91,31.33,11.63,68.69,1.94,91.61-22.02,21.43-12.31,31.33-38.52,34.69-62.31,4.77-33.72-5.1-65.15-32.75-86.13-51.84-39.32-126.32-8.86-143.76,51.89Zm80.98,118.36c-44.14,1.47-79.73-36.15-78.95-79.73,0-1.09-.73-1.63-1.56-1.7-1.65-44.73,33.67-80.77,78.59-82.75,21.64-.95,44.59,5.98,60.18,21.53,16.26,16.19,23.25,40.34,21.9,62.85-2.55,43.17-36.48,78.36-80.17,79.8Z"/>
  </g>
  <path class="cls-1" d="m634.32,139.98c-1.63.05-2.39,1.37-2.27,2.6-10.04,13.11-19.14,27.76-25.76,42.96-12.74-13.42-24.57-27.1-34.81-42.6-1.02-1.51-2.84-1.37-3.9-.47-10-1.39-20.94-2.86-30.95-2.15-.83.05-1.47.59-1.82,1.23-.61-.85-2.15-.71-2.58.47-.9,2.39.71,4.61,2.84,5.65.24.12.5.21.76.31-.28.8-.21,1.75.5,2.58,24.39,28.1,45.42,58.39,68.19,87.71,1.06,1.39,3.07.12,3.07-1.35l.19.02c-.21,1.68,2.13,2.74,3.28,1.11,20.94-29.47,39.06-62.17,55.79-94.19,1.18-2.29-1.37-4.28-3.19-3.4-9.69-.71-19.66-.78-29.35-.47Z"/>
  <path class="cls-2" d="m687.82,131.38c-.99-.19-1.71.36-2.03,1.06-7.46,3.73-14.45,9.43-20.24,15.48-.26,0-.5-.01-.73,0-1.63,0-2.39,1.32-2.33,2.55-7.38,9.21-14.3,19.22-20.19,29.67-9.51-17.17-22.07-32.85-34.44-47.95-1.15-1.4-2.85-.52-3.3.82-7.43-2.8-15.79-4.17-23.68-3.36-.54-.22-1.18-.17-1.68.22-.4.06-.78.08-1.19.16-1.3.21-1.46,1.81-.75,2.63-1.52,2.42-2.97,4.82-4.94,6.98-2.43,2.71-5.27,4.98-8.29,6.99-.54.03-1.07.33-1.32.96-1.03,2.62,1.02,5.13,3.48,6.04-.33.8-.28,1.74.41,2.59,23.75,28.63,44.05,59.43,66.14,89.27.57.77,1.4.74,2.07.33-.18.82.48,1.88,1.41,1.52,9.32-3.49,18.63-7.32,27.66-11.48.24.64,1.18.95,1.7.18,20.81-30.95,38.78-64.12,57.49-96.38.91-1.56-.52-3.2-2.08-2.91-.19-.17-.44-.32-.77-.35-10.94-.99-21.65-2.87-32.41-5.03Zm-51.75,113.43c-.17.07-.31.16-.45.2.25-.49.33-1.08.01-1.65-17.8-32.39-41.83-62.26-65.35-90.67-.28-.31-.58-.53-.88-.68-.18-.22-.44-.34-.8-.33-.99.07-1.84-.3-2.46-1.1-.18-.22-.3-.46-.39-.69.21.15.44.25.73.32,9.9,2.12,20.96,2.28,31.12,2.31.12.05.26.05.4.06,9.84,16.16,21.72,31.56,35.99,44.04.46.41,1,.54,1.5.51,1.05.8,2.79.89,3.58-.46,8.71-14.69,17.09-29.48,26.21-43.95,8.57.46,17.34.59,25.97.27-18.42,30.04-37.69,59.89-55,90.57-.25.44-.28.87-.19,1.25Z"/>
  <g>
    <path class="cls-1" d="m83.96,52.87c-7.77,4.99-15.74,10.35-22.8,16.35-2.08-.38-4.16,2.39-2.29,4.32,13.97,14.37,28.43,28.21,43.55,41.33,13.07,11.32,27.17,21.29,38.3,34.62-.19.05-.38.14-.59.26-27.58,17.44-53.17,38.68-77.2,60.66-.97.9-.99,2.72,0,3.59,27.69,24.41,53.88,50.43,81.38,74.98-.14.05-.28.14-.45.24-27.72,18.86-56.45,36.03-86.2,51.51-1.37.71-1.7,2.91-.5,3.95,32.11,27.93,64.3,56.21,98.37,81.78.54.43,1.16.38,1.68.12.33.59.99.94,1.72.45,7.61-5.39,14.25-12.52,20.39-19.49,1.65-1.89-.76-4.54-2.55-3.33-.07-.26-.17-.52-.38-.78-18.41-21.15-40.29-39.91-60.73-59.14,15.45-9.71,29.99-20.89,44.42-32.02,7.16-5.51,14.34-11.03,21.34-16.78,2.5-2.06,6.45-4.32,6.45-8.08,0-4.77-6.52-9.03-9.29-11.74-6.99-6.88-13.99-13.75-20.98-20.65-13.94-13.71-27.88-27.43-41.82-41.16.12-.07.24-.09.33-.19,23.16-19.47,45.32-40.15,67.86-60.33.85-.78.87-2.1.4-3.05-9.4-18.36-26.63-31.47-41.49-45.25-18.05-16.75-36.11-33.51-54.16-50.26-.43-.4-.9-.61-1.37-.69-.47-1.3-1.87-2.17-3.4-1.21Z"/>
    <path class="cls-2" d="m63.99,29.51c-.57.02-1.09.33-1.37.92-.14.07-.31.12-.45.24-7.59,5.91-15.26,11.48-23.16,16.94-.92-.9-2.91-.52-2.91,1.16-.09,7.18.12,14.41.31,21.6-.66.9-.8,2.15.19,3.19,13.97,14.37,28.43,28.19,43.57,41.33,8.15,7.09,16.75,13.63,24.74,20.82-.14.07-.28.14-.43.26-16.8,14.86-34.07,28.43-51.84,42.01-.85-.28-1.89,0-2.29,1.09-.12.31-.21.59-.31.9-.31.21-.59.45-.9.69-.76.57-.59,1.54-.02,1.96-3,8.67-5.48,17.65-7.92,26.49-.07.31-.05.57.05.8-.19.19-.38.35-.57.52-.97.87-1.02,2.72,0,3.59,23.39,20.63,45.72,42.39,68.69,63.47-17.49,10.94-35.28,21.08-53.07,31.43-.12.05-.24.12-.35.21-.59.33-1.18.66-1.77,1.02-.61.35-.61,1.21-.24,1.7-6.43,9.48-12.76,19.02-18.55,28.9-1.37.71-1.68,2.91-.5,3.95,32.11,27.93,64.3,56.21,98.37,81.78.57.43,1.16.38,1.68.12.33.59,1.02.95,1.72.43,7.61-5.36,14.27-12.5,20.39-19.47.87-.99.61-2.2-.09-2.93,1.06-9.9,1.91-19.83,2.55-29.75.14-2.1-2.41-2.46-3.52-1.21-14.65-14.01-29.49-27.79-43.97-41.99,8.74-6.29,17.3-12.85,25.83-19.4,7.16-5.51,14.32-11.06,21.31-16.78,2.5-2.06,6.45-4.32,6.45-8.08,0-1.54-.69-3.02-1.68-4.42.17-8.22.38-16.49.14-24.72-.05-1.09-.83-1.65-1.68-1.73.99-.19,1.75-1.44.85-2.43-16.99-18.83-35.66-36.32-54.54-53.24,17.86-15.62,35.33-31.73,53-47.54.87-.78.9-2.1.4-3.07-.35-.69-.73-1.35-1.11-2.01,0-.09.05-.17.05-.26-.35-9.95-.8-19.99-1.77-29.89-.12-1.23-1.13-1.89-2.1-1.89v-1.49c.73,0,1.42-.95.95-1.61-11.46-15.81-28.07-29.21-42.46-42.25-15.83-14.34-32.18-28.1-48.91-41.4-.92-.73-2.01-.52-2.76.05Zm89.08,124.79c-5.41,6.66-13.87,12.43-20.27,18.17-14.08,12.59-28.38,25.02-42.06,38.04-.31.28-.47.59-.57.9-1.98-.05-3.8,2.53-1.96,4.32,11.81,11.65,23.65,23.3,35.49,34.92,5.39,5.29,10.75,10.59,16.14,15.88,5.22,5.15,14.13,11.15,17.75,17.46,3.8,6.66-5.46,10.68-10.63,14.77-7.33,5.81-14.72,11.53-22.16,17.18-11.51,8.74-23.25,17.13-34.5,26.18-1.96-.07-3.76,2.46-1.94,4.21,20.75,19.92,40.97,41.49,63.56,59.31.26.21.54.31.83.35-5.46,6.14-11.34,11.86-16.8,17.96-.09-.17-.19-.33-.35-.5-31.07-27.17-63.26-53.05-94.47-80.08,28.64-15,56.33-31.59,83.06-49.76,1.32-.9,1.37-2.43.78-3.52,1.11-.47,1.77-1.91.69-3.1-24.55-26.65-52.15-50.85-79.35-74.81,23.42-21.17,48.42-39.84,74.01-58.29,1.18-.83,1.28-2.2.78-3.21.8-.43,1.37-1.44.83-2.39-8.6-14.65-23.94-24.53-36.53-35.47-15.05-13.09-29.49-26.82-43.41-41.09,7.18-3.95,14.13-8.74,20.77-13.56.05.07.09.12.14.19,26.87,24.91,55.17,48.94,80.74,75.21,3.05,3.12,5.86,6.33,8.41,9.85,3.47,4.77,4.91,6.1,1.04,10.87Z"/>
  </g>
  <g>
    <path class="cls-1" d="m912.58,226.81c1.11,0,2.2-.71,2.2-2.13-.26-68.45-.5-137.15-2.88-205.55-.05-1.44-1.42-1.99-2.46-1.65-.24-.28-.57-.5-.95-.54-24.22-2.84-50.02-.02-74.41.26-24.03.28-48.06.45-72.12.57-48.84.24-97.68.05-146.53-.54-2.62-.05-3.12,3.28-1.49,4.56l-.07.97c-1.16,0-1.84,1.75-.66,2.62,48.35,35.14,98.56,67.89,147.94,101.54,49.41,33.67,98.89,67.23,148.37,100.83,1.3.87,2.53.17,3.05-.92Zm-31.07-62.05c-56.85-40.17-114.6-80.13-174.98-114.86,56.21,2.25,112.55,2.36,168.79,4.28,3.24,36.89,5.95,73.56,6.19,110.59Z"/>
    <g>
      <path class="cls-2" d="m689.55,62.77c-.99-.57-1.87.05-2.15.85-.5.83-.14,2.15,1.13,2.22h.09c61.04,40.71,123.04,79.7,182.94,122.12,1.16.83,2.27.45,2.95-.38.47-.4.8-.99.8-1.8,0-39.06-1.56-78.43-6.95-117.13-.12-.83-.71-1.3-1.39-1.49-.31-.71-.97-1.3-1.96-1.32-58.25-1.89-116.85-4.32-175.14-2.88-.09-.07-.21-.12-.33-.19Zm174.57,7.61c2.41,27.41,4.54,54.7,5.55,82.11-39.3-28.14-79.47-54.44-117.25-84.71,37.24.83,74.48,1.32,111.7,2.6Z"/>
      <path class="cls-2" d="m919.68,10.31c-.09.07-.19.17-.28.24-48.42-1.56-97.19.73-145.65,1.09-48.58.35-97.14.33-145.72.28-1.18,0-1.91.66-2.24,1.49-12.05,1.7-22.05,12.48-24.98,23.87-.28,1.06.31,1.8,1.06,2.06-.54.57-.66,1.63.17,2.24,48.35,35.14,98.56,67.86,147.94,101.54,49.41,33.67,98.89,67.23,148.37,100.8,1.3.9,2.53.19,3.05-.9,1.11,0,2.2-.71,2.2-2.13v-.28c7.28-5.62,13.97-12.1,20.34-18.67.43-.43.57-.92.59-1.37.64-.17,1.18-.69,1.21-1.56,2.39-69.14-.57-138.78-1.23-207.94-.02-2.91-4.11-3.14-4.82-.76Zm-167.41,128.9c-49.46-33.48-98.37-68.08-148.84-100.05.26-.17.5-.4.66-.73.05,0,.09.02.17.02,49.62.61,99.24.8,148.87.54,24.81-.12,49.62-.43,74.43-.83,22.61-.35,46.62,1.25,69.05-2.22.09.21.24.38.43.52-.66,67.41.73,135.07,2.15,202.48-48.96-33.27-97.9-66.56-146.9-99.74Z"/>
    </g>
  </g>
  <path class="cls-2" d="m259.85,986.21c-.66,7.44-1.35,15.19-1.63,22.95-.92,0-1.83,0-2.75,0-7.75.04-16.09-1.04-23.4,1.74-.49.19-.49.81,0,1,7.26,2.76,15.72,1.7,23.4,1.74.88,0,1.77,0,2.65,0-.1,7.3.23,14.55,1.41,21.5.09.54.91.48,1.04,0,1.83-6.88,2.8-14.14,3.34-21.48,6.23.02,12.47.05,18.7.06,3,0,3.01-4.67,0-4.67-6.14.02-12.27.04-18.41.06.39-7.73.39-15.49.39-22.93,0-3.1-4.48-3-4.75,0Z"/>
  <path class="cls-2" d="m99.6,585.57c-3.48,22.02-6.96,44.04-10.43,66.07-.35,2.21,1.62,3.85,3.7,2.84,17.21-8.34,34.62-16.36,51.47-25.41,2.37-1.28.29-4.54-2.06-3.53-16.05,6.93-31.72,14.76-47.45,22.41,3.04-19.11,6.07-38.23,9.09-57.35,15.33,10.51,29.37,22.44,42.23,35.89,2.27,2.37,5.86-1.23,3.6-3.59-14.04-14.68-29.5-27.6-46.42-38.84-1.26-.84-3.48-.07-3.73,1.52Z"/>
  <path class="cls-2" d="m230.38,160.89c-.72,12.34-.74,24.73-1.34,37.09-.59,12.28-2.19,24.74-1.44,37.02.09,1.55,2.45,2.05,2.84.38,5.42-23.43,5.25-50.51,4.62-74.49-.08-3.03-4.51-3-4.69,0Z"/>
  <path class="cls-2" d="m248.75,160.87c-.72,12.82-1.11,25.67-1.61,38.5-.44,11.22-2.25,23.25-.09,34.31.25,1.29,2.15,1.16,2.48,0,3.06-10.86,2.19-23.1,2.66-34.31.54-12.83,1.18-25.66,1.51-38.5.08-3.2-4.77-3.16-4.94,0Z"/>
  <path class="cls-2" d="m487.98,180.1c-2.44.67-2.06,4.84.62,4.56,34.84-3.55,29.68,55.03-2.22,43.6-1.72-.62-2.85,2.1-1.24,2.95,15.74,8.33,31.61-4.54,33.18-20.87,1.55-16.17-12.84-35.01-30.33-30.24Z"/>
  <path class="cls-2" d="m467.88,173.93c-2.34,16.26,10.78,31.59,26.92,32.45,2.04.11,2.53-3.21.49-3.6-12.95-2.51-24.71-14.04-22.35-28.16,2.47-14.8,16.19-20.66,29.68-19.92,2.55.14,2.9-3.62.59-4.33-15.4-4.7-33.07,8-35.31,23.56Z"/>
  <path class="cls-2" d="m517.4,22.78c-3.01,1.13-1.71,6,1.34,4.86,19.73-7.38,39.09,15.43,23.64,32.33-6.26,6.85-17.86,8.42-21.85,17.51-7.76,17.67,17.12,31.38,31.42,30.23,2.21-.18,2.23-3.29,0-3.45-8.57-.62-22.11-4.65-25.3-14.01-2.63-7.72.84-14.43,6.92-18.24,2.04-1.28,4.21-2.32,6.24-3.62,7.21-4.66,12.04-11.34,12.89-20.08,1.89-19.5-17.78-32.09-35.29-25.53Z"/>
  <path class="cls-2" d="m-8.39,257.95c-27.75,42.9-46.33,90.77-74.42,133.57-.74,1.13.26,2.42,1.37,2.58.37.49.94.85,1.73.91,24.15,1.86,48.82,3.5,73.04,4.03.45,2.24,4.02,2.1,4.12-.43C-.81,355.52-.69,312.32.02,269.2c.77.09,1.64-.54,1.33-1.45-1.17-3.44-2.63-6.8-4.09-10.12-.44-1.01-1.46-.98-2.16-.47-1.09-.62-2.6-.57-3.48.78Zm1.61,137.27c-23.01-3.69-47.41-5.13-70.73-4.86,30.96-38.53,46.41-87.62,72.97-129.06.42.89.82,1.79,1.26,2.68-.94.28-1.73,1.05-1.75,2.32-.69,42.95-2,85.96-1.75,128.92Z"/>
  <path class="cls-2" d="m43.12,243.86c.36,9.24.42,18.45.28,27.65-7.16-.18-14.3.01-21.32.75-2.65.28-2.78,4.23,0,4.23,7.11,0,14.16,0,21.21.07-.19,8.52-.52,17.04-.97,25.58-.12,2.35,3.27,2.2,3.57,0,1.13-8.48,1.84-16.99,2.24-25.52,8.1.14,16.2.42,24.36,1.04,1.93.15,2.42-3.13.46-3.43-8.07-1.22-16.34-2.12-24.62-2.54.29-9.27.21-18.55-.18-27.83-.13-3.22-5.15-3.24-5.02,0Z"/>
  <path class="cls-1" d="m10.86,783.83c-1.12.39-1.93,1.44-1.37,2.89,10.29,26.76,21.63,53.06,34.09,78.87.79,1.63,3.6,1.68,4.37,0,11.32-24.63,22.48-49.68,30.98-75.45.18-.55.12-1-.04-1.38,1.41-.86,1.53-3.56-.44-3.83-21.54-2.95-43.5-3.59-65.22-4.08-1.85-.04-2.62,1.56-2.37,2.98Zm64.03,5.07s-.05.07-.07.11c-9.66,23.13-18.76,46.43-29.09,69.28-11.26-23.72-21.65-47.8-31.09-72.3,20.12.49,40.16,2.06,60.25,2.92Z"/>
  <path class="cls-1" d="m341.55,984.63c-.49,21.02-.02,42.05,2.02,62.99.29,2.97,4.91,3.05,4.71,0-1.4-21-2.16-41.93-1.64-62.99.08-3.27-5.01-3.27-5.08,0Z"/>
  <path class="cls-1" d="m109.74,702.56c-3.21.43-1.85,5.33,1.35,4.88,11.5-1.62,28.24-.42,31.64,13.4,2.39,9.73-5.36,14.85-12.81,18.52-7.64,3.76-16.17,7.33-18.29,16.47-4.82,20.72,20.13,29.27,35.71,23,1.85-.74,1.16-3.29-.82-2.98-11.07,1.73-28.02,1.21-30.28-13.02-1.55-9.77,6.1-14.51,13.49-18.11,7.67-3.74,16.16-7.46,18-16.72,4.4-22.11-22.09-27.59-37.98-25.44Z"/>
  <path class="cls-1" d="m656.26,863.39c-6.4,11.55-12.92,23.03-19.13,34.68-1.49,2.8,2.68,5.27,4.27,2.5,5.88-10.24,11.52-20.62,17.22-30.96,7.07,11.02,14.13,22.05,21.24,33.05,1.06,1.63,3.23,1.57,4.3,0,6.99-10.28,14.24-20.44,20.73-31.05,1.41-2.3-1.97-4.07-3.51-2.05-6.77,8.85-12.99,18.14-19.29,27.34-7.13-11.18-14.29-22.34-21.44-33.51-1-1.55-3.42-1.73-4.37,0Z"/>
  <path class="cls-1" d="m178.94,30.55c-.97,17.3,2.8,41.7,23.73,45.17,18.92,3.14,31.33-15.85,34.43-31.94.48-2.48-2.95-3.44-3.79-1.04-4.66,13.34-14.32,32.88-32.13,27.45-16.58-5.05-17.79-25.45-17.22-39.64.13-3.24-4.84-3.21-5.02,0Z"/>
  <path class="cls-1" d="m148.85,47.89c.15,3.26,5.23,3.28,5.08,0-.66-14.63,5.33-33.43,22.33-35.18,21.54-2.22,30.16,20.84,30.16,38.33,0,2.44,3.51,2.35,3.73,0,1.92-20.17-9.41-44.22-32.69-43.6-20.51.55-29.41,22.83-28.62,40.46Z"/>
  <path class="cls-1" d="m663.93,936.01c5.03,2.24,2.31,30.65,2.36,36.38.09,10.9.13,21.81.39,32.7.06,2.37,3.62,2.38,3.69,0,.47-17.12.56-34.26.68-51.39.04-6.46,3.19-19.68-5.37-21.85-2.39-.61-4.19,3.07-1.75,4.15Z"/>
</svg>