<!--?xml version="1.0" standalone="no"?-->
              <svg id="sw-js-blob-svg" viewBox="0 0 100 100" xmlns="http://www.w3.org/2000/svg" version="1.1">
                    <defs> 
                        <linearGradient id="sw-gradient" x1="0" x2="1" y1="1" y2="0">
                            <stop id="stop1" stop-color="rgba(49, 49, 49, 1)" offset="0%"></stop>
                            <stop id="stop2" stop-color="rgba(44.219, 44.219, 44.219, 1)" offset="100%"></stop>
                        </linearGradient>
                    </defs>
                <path fill="url(#sw-gradient)" d="M22.4,-25.2C29.6,-20.7,36.5,-14.1,37.4,-6.9C38.3,0.4,33.3,8.4,28.1,15.3C23,22.1,17.6,27.9,10.6,31.4C3.6,34.9,-5,36.2,-12.9,33.9C-20.8,31.7,-28,26,-31.1,18.8C-34.2,11.6,-33.2,3,-31.7,-5.6C-30.2,-14.2,-28.2,-22.7,-22.8,-27.5C-17.4,-32.3,-8.7,-33.6,-0.6,-32.9C7.6,-32.2,15.2,-29.7,22.4,-25.2Z" width="100%" height="100%" transform="translate(50 50)" stroke-width="0" style="transition: all 0.3s ease 0s;" stroke="url(#sw-gradient)"></path>
              </svg>