<?xml version="1.0" encoding="UTF-8"?>
<svg id="Layer_1" data-name="Layer 1" xmlns="http://www.w3.org/2000/svg" viewBox="0 0 1080 1080">
  <defs>
    <style>
      .cls-1 {
        fill: #fff;
      }
    </style>
  </defs>
  <path class="cls-1" d="m544.42,290.58l40.75,63.27,28.54-63.27h-69.29Zm-183.37,415.78l-190-415.78h-77.3l234.76,498.84h60.21l39.9-88.47v-149.4l-67.56,154.8Z"/>
  <path class="cls-1" d="m546.81,438.93l-1.58,3.5,1.62,2.58c0-2.08-.02-4.11-.04-6.08Z"/>
  <path class="cls-1" d="m546.81,438.93l-1.58,3.5,1.62,2.58c0-2.08-.02-4.11-.04-6.08Z"/>
  <path class="cls-1" d="m546.81,438.93l-1.58,3.5,1.62,2.58c0-2.08-.02-4.11-.04-6.08Z"/>
  <path class="cls-1" d="m986.25,290.58v498.84h-65.92v-336.49c0-1.99.09-5.38.28-10.16.24-5.71.63-13.42,1.14-23.11.94-17.77,1.55-31.08,1.84-39.88-5.43,12.89-10.24,23.75-14.45,32.55-4.2,8.82-7.94,15.91-11.18,21.25l-6.52,11.01-153.12,258.5-4.73,7.99h-18.32l-5.58-8.8-162.84-257.28c0-2.08-.02-4.11-.04-6.08l-1.58,3.5-.83-1.29c-.28-.31-.96-1.42-2.04-3.3-12.48-19.83-21.43-39.18-26.86-58.04,1.07,9.74,1.9,19.98,2.45,30.66.46,9.39.74,21.43.79,36.16.02,2.06.02,4.16.02,6.33v336.49h-61.04v-498.84h58.59l15.61,24.25,41.67,64.7,136.79,212.37,15.06,23.4,13.55-22.59,181.33-302.12h65.92Z"/>
</svg>